<svg width="48" height="48" viewBox="0 0 48 48" fill="none" xmlns="http://www.w3.org/2000/svg">
<path d="M24 46.5C36.4264 46.5 46.5 36.4264 46.5 24C46.5 11.5736 36.4264 1.5 24 1.5C11.5736 1.5 1.5 11.5736 1.5 24C1.5 36.4264 11.5736 46.5 24 46.5Z" fill="#4F008C"/>
<path d="M24 42.75C34.3553 42.75 42.75 34.3553 42.75 24C42.75 13.6447 34.3553 5.25 24 5.25C13.6447 5.25 5.25 13.6447 5.25 24C5.25 34.3553 13.6447 42.75 24 42.75Z" fill="#420374"/>
<path d="M27.8997 15.1875C27.7872 15.9375 27.5997 17.025 26.6997 18.0375C26.4372 14.9625 24.1872 11.175 21.7497 10.05C20.9997 13.5 17.0622 16.4625 16.3872 20.55C15.7122 24.6375 18.5247 28.5 22.6122 29.1375C26.6997 29.8125 30.5622 27 31.1997 22.9125C31.6872 19.95 30.0747 16.425 27.8997 15.1875Z" fill="#FFDE39"/>
<path d="M21.6747 28.125C19.5747 27 18.7872 24.375 19.9122 22.2375C20.4372 21.1125 21.0372 19.3875 21.1497 18.375C22.3122 18.45 24.1872 19.275 25.7622 20.5125C27.3372 21.75 28.6497 24.2625 27.5247 26.4C26.4372 28.5 23.7747 29.2875 21.6747 28.125Z" fill="#FEC632"/>
<path d="M8.625 27C8.625 27 9.75 33 16.125 37.875" stroke="#00C48C" stroke-width="2" stroke-miterlimit="10" stroke-linecap="round" stroke-linejoin="round"/>
<path d="M39.375 27C39.375 27 38.25 33 31.875 37.875" stroke="#00C48C" stroke-width="2" stroke-miterlimit="10" stroke-linecap="round" stroke-linejoin="round"/>
<path d="M25.7249 26.175C25.6124 27.4125 24.3749 28.2375 23.1374 28.05C21.8999 27.8625 20.9624 26.6625 21.2624 25.4625C21.7124 23.625 24.0374 22.5 24.0374 22.5C24.0374 22.5 25.8749 24.75 25.7249 26.175Z" fill="#F9A74E"/>
<path d="M14.3624 33C14.3624 33.0375 15.4124 33.75 15.5624 34.575C15.7124 35.4375 14.7749 36.1875 14.7374 36.1875C14.7374 36.225 13.3874 35.4 13.3124 34.4625C13.2749 33.5625 14.3999 33 14.3624 33Z" fill="#00C48C"/>
<path d="M14.4756 36.5625C14.4756 36.5625 14.0256 37.725 13.0131 37.6875C11.9631 37.6125 10.9131 36.15 10.9131 36.15C10.9131 36.15 11.5506 35.1 12.5256 35.25C13.4631 35.4 14.4381 36.5625 14.4756 36.5625Z" fill="#00C48C"/>
<path d="M12.7127 30.75C12.7127 30.7875 13.6127 31.6875 13.5752 32.55C13.5377 33.4125 12.4502 33.975 12.4502 33.975C12.4502 34.0125 11.2877 32.9625 11.4002 31.9875C11.5127 31.0875 12.7127 30.7875 12.7127 30.75Z" fill="#00C48C"/>
<path d="M12.1127 34.3124C12.1127 34.3124 11.4377 35.3624 10.4627 35.0999C9.45019 34.8374 8.7002 33.1499 8.7002 33.1499C8.7002 33.1499 9.56269 32.2499 10.4627 32.5874C11.3252 32.9624 12.0752 34.3124 12.1127 34.3124Z" fill="#00C48C"/>
<path d="M11.5127 28.2C11.5127 28.2375 12.1877 29.325 12.0002 30.15C11.8127 31.0125 10.6127 31.35 10.6127 31.3125C10.6127 31.35 9.67523 30.0375 9.97523 29.1375C10.2752 28.3125 11.5127 28.2375 11.5127 28.2Z" fill="#00C48C"/>
<path d="M8.51323 25.0874C8.51323 25.0874 9.60073 25.8749 9.82573 26.8499C10.0132 27.8249 9.33823 28.9499 9.33823 28.9499C9.33823 28.9499 8.06323 28.4249 7.80073 27.2624C7.53823 26.1374 8.51323 25.0874 8.51323 25.0874Z" fill="#00C48C"/>
<path d="M10.2004 31.5749C10.2004 31.5749 9.33789 32.4749 8.43789 32.0249C7.50039 31.5374 7.08789 29.7374 7.08789 29.7374C7.08789 29.7374 8.10039 29.0249 8.92539 29.5499C9.71289 30.1124 10.2004 31.5749 10.2004 31.5749Z" fill="#00C48C"/>
<path d="M37.0498 36.15C37.0873 36.15 35.9998 37.6125 34.9498 37.6875C33.9373 37.7625 33.4873 36.5625 33.4873 36.5625C33.5248 36.5625 34.4998 35.4 35.4373 35.25C36.4123 35.1 37.0873 36.15 37.0498 36.15Z" fill="#00C48C"/>
<path d="M33.225 36.1875C33.225 36.1875 32.2875 35.4375 32.4 34.575C32.55 33.75 33.6 33 33.6 33C33.6 33 34.6875 33.5625 34.65 34.5C34.575 35.4375 33.225 36.225 33.225 36.1875Z" fill="#00C48C"/>
<path d="M39.3002 33.1874C39.3377 33.1874 38.5502 34.8374 37.5377 35.1374C36.5627 35.3999 35.8877 34.3124 35.8877 34.3499C35.9252 34.3499 36.6377 32.9999 37.5377 32.6624C38.4377 32.2874 39.3002 33.1499 39.3002 33.1874Z" fill="#00C48C"/>
<path d="M35.55 34.0124C35.55 34.0124 34.4625 33.4499 34.425 32.5874C34.3875 31.7249 35.2875 30.8249 35.2875 30.7874C35.2875 30.7874 36.4875 31.1249 36.6 32.0249C36.7125 32.9624 35.55 34.0124 35.55 34.0124Z" fill="#00C48C"/>
<path d="M40.8752 29.775C40.9127 29.775 40.4627 31.575 39.5252 32.0625C38.6252 32.5125 37.7627 31.6125 37.7627 31.6125C37.8002 31.6125 38.2502 30.15 39.0377 29.5875C39.8627 29.025 40.8752 29.7375 40.8752 29.775Z" fill="#00C48C"/>
<path d="M39.5251 25.0874C39.5251 25.0874 40.4626 26.1374 40.2376 27.2999C39.9751 28.4624 38.7001 28.9874 38.7001 28.9874C38.7001 28.9874 38.0251 27.8624 38.2126 26.8874C38.4376 25.9124 39.5251 25.1249 39.5251 25.0874Z" fill="#00C48C"/>
<path d="M37.3501 31.3498C37.3501 31.3498 36.1501 31.0123 35.9626 30.1873C35.7751 29.3623 36.4501 28.2373 36.4501 28.2373C36.4501 28.2373 37.6876 28.3123 37.9876 29.2123C38.3251 30.1123 37.3501 31.3873 37.3501 31.3498Z" fill="#00C48C"/>
<path d="M31.5 30.75H16.5V28.5C16.5 27.675 17.175 27 18 27H30C30.825 27 31.5 27.675 31.5 28.5V30.75Z" fill="white"/>
<path opacity="0.2" d="M30 27H28.125C28.95 27 29.625 27.675 29.625 28.5V30.75H31.5V28.5C31.5 27.675 30.825 27 30 27Z" fill="#4F008C"/>
<path d="M28.6125 35.25H19.3875C18.7875 35.25 18.225 34.875 18 34.3125L16.5 30.75H31.5L30 34.3125C29.775 34.875 29.2125 35.25 28.6125 35.25Z" fill="#0CAFE8"/>
<path d="M29.6248 30.75L28.1248 34.3125C27.8998 34.875 27.3373 35.25 26.7373 35.25H28.6123C29.2123 35.25 29.7748 34.875 29.9998 34.3125L31.4998 30.75H29.6248Z" fill="#0B90D3"/>
<path d="M20.9625 46.3125C21.975 46.4625 22.9875 46.5375 24 46.5375C25.0125 46.5375 26.025 46.4625 27.0375 46.3125L27.75 35.25H20.25L20.9625 46.3125Z" fill="#0B90D3"/>
<path d="M26.25 46.3875C26.5125 46.35 26.775 46.3125 27.0375 46.275L27.75 35.25H26.625L26.25 46.3875Z" fill="#007BC6"/>
<path d="M20.3625 36.75H27.6375L27.75 35.25H20.25L20.3625 36.75Z" fill="#007BC6"/>
<path d="M27.75 12C28.1642 12 28.5 11.6642 28.5 11.25C28.5 10.8358 28.1642 10.5 27.75 10.5C27.3358 10.5 27 10.8358 27 11.25C27 11.6642 27.3358 12 27.75 12Z" fill="#F9A74E"/>
<path d="M24.375 8.25C24.7892 8.25 25.125 7.91421 25.125 7.5C25.125 7.08579 24.7892 6.75 24.375 6.75C23.9608 6.75 23.625 7.08579 23.625 7.5C23.625 7.91421 23.9608 8.25 24.375 8.25Z" fill="#FEC632"/>
</svg>
