<svg width="55" height="55" viewBox="0 0 55 55" fill="none" xmlns="http://www.w3.org/2000/svg">
<path d="M27.5 53.2812C41.7386 53.2812 53.2812 41.7386 53.2812 27.5C53.2812 13.2614 41.7386 1.71875 27.5 1.71875C13.2614 1.71875 1.71875 13.2614 1.71875 27.5C1.71875 41.7386 13.2614 53.2812 27.5 53.2812Z" fill="#4F008C"/>
<path d="M27.5 48.9844C39.3655 48.9844 48.9844 39.3655 48.9844 27.5C48.9844 15.6345 39.3655 6.01562 27.5 6.01562C15.6345 6.01562 6.01562 15.6345 6.01562 27.5C6.01562 39.3655 15.6345 48.9844 27.5 48.9844Z" fill="#420374"/>
<path d="M34.8047 14.6094H20.1953V24.9219H34.8047V14.6094Z" fill="#FEC632"/>
<path d="M27.5 47.0508C35.4499 47.0508 41.8945 40.6061 41.8945 32.6562C41.8945 24.7064 35.4499 18.2617 27.5 18.2617C19.5501 18.2617 13.1055 24.7064 13.1055 32.6562C13.1055 40.6061 19.5501 47.0508 27.5 47.0508Z" fill="#FFDE39"/>
<path d="M27.5 44.3437C33.9548 44.3437 39.1875 39.1111 39.1875 32.6562C39.1875 26.2014 33.9548 20.9688 27.5 20.9688C21.0452 20.9688 15.8125 26.2014 15.8125 32.6562C15.8125 39.1111 21.0452 44.3437 27.5 44.3437Z" fill="#FEC632"/>
<path d="M16.1992 33.4297C16.1992 26.9844 21.4414 21.7422 27.8867 21.7422C32.3125 21.7422 36.1367 24.1914 38.1133 27.8008C36.2656 23.8047 32.2266 20.9688 27.5 20.9688C21.0547 20.9688 15.8125 26.2109 15.8125 32.6562C15.8125 34.6758 16.3281 36.6094 17.2734 38.2852C16.5859 36.7812 16.1992 35.1484 16.1992 33.4297Z" fill="#F9A74E"/>
<path d="M27.5 42.3672C32.8632 42.3672 37.2109 38.0195 37.2109 32.6562C37.2109 27.293 32.8632 22.9453 27.5 22.9453C22.1368 22.9453 17.7891 27.293 17.7891 32.6562C17.7891 38.0195 22.1368 42.3672 27.5 42.3672Z" fill="#FFDE39"/>
<path d="M34.8047 16.3281H20.1953V17.6172H34.8047V16.3281Z" fill="#F9A74E"/>
<path d="M27.5008 36.1797L30.4656 37.7266C30.8953 37.9414 31.4109 37.5977 31.325 37.082L30.7664 33.7734L33.1726 31.4531C33.5164 31.1094 33.3445 30.5078 32.8289 30.4219L29.5203 29.9492L28.0594 26.9414C27.8445 26.5117 27.2 26.5117 26.9851 26.9414L25.5242 29.9492L22.2156 30.4219C21.7429 30.5078 21.5281 31.1094 21.8719 31.4531L24.2781 33.7734L23.7195 37.082C23.6336 37.5547 24.1492 37.9414 24.5789 37.7266L27.5008 36.1797Z" fill="white"/>
<path d="M15.6836 4.55469L21.0547 15.0391H33.9453L27.1133 1.71875C22.9883 1.76172 19.1211 2.79297 15.6836 4.55469Z" fill="#FF375E"/>
<path d="M26.5977 1.76172L20.4102 13.793L21.0547 15.0391H32.6562L33.3008 13.793L27.1133 1.71875C26.9414 1.71875 26.7695 1.71875 26.5977 1.76172Z" fill="#A72973"/>
<path d="M34.418 17.1875H20.582C19.6367 17.1875 18.9062 16.4141 18.9062 15.5117V15.4688C18.9062 14.5234 19.6797 13.793 20.582 13.793H34.375C35.3203 13.793 36.0508 14.5664 36.0508 15.4688V15.5117C36.0938 16.4141 35.3203 17.1875 34.418 17.1875Z" fill="#FFDE39"/>
<path d="M20.582 15.8984C20.3672 15.8984 20.1953 15.7266 20.1953 15.5117V15.4688C20.1953 15.2539 20.3672 15.082 20.582 15.082H34.375C34.5898 15.082 34.7617 15.2539 34.7617 15.4688V15.5117C34.7617 15.7266 34.5898 15.8984 34.375 15.8984H20.582Z" fill="#420374"/>
<path d="M21.0547 15.0391H33.9453L39.3164 4.55469C35.8789 2.79297 32.0117 1.76172 27.8867 1.71875L21.0547 15.0391Z" fill="#FF375E"/>
</svg>
