<svg width="139" height="146" viewBox="0 0 139 146" fill="none" xmlns="http://www.w3.org/2000/svg">
<path d="M105.922 52.7151H19.2344C18.0243 52.7151 16.8638 53.1958 16.0082 54.0514C15.1526 54.907 14.6719 56.0675 14.6719 57.2776V70.9651C14.6719 71.5642 14.7899 72.1575 15.0192 72.7111C15.2485 73.2646 15.5845 73.7676 16.0082 74.1913C16.4319 74.6149 16.9348 74.951 17.4884 75.1803C18.0419 75.4096 18.6352 75.5276 19.2344 75.5276H105.922C107.132 75.5276 108.292 75.0469 109.148 74.1913C110.004 73.3356 110.484 72.1751 110.484 70.9651V57.2776C110.484 56.0675 110.004 54.907 109.148 54.0514C108.292 53.1958 107.132 52.7151 105.922 52.7151Z" fill="#FFCC5C"/>
<path d="M105.922 52.7151H96.7969C98.0069 52.7151 99.1674 53.1958 100.023 54.0514C100.879 54.907 101.359 56.0675 101.359 57.2776V70.9651C101.359 71.5642 101.241 72.1575 101.012 72.7111C100.783 73.2646 100.447 73.7676 100.023 74.1913C99.5994 74.6149 99.0964 74.951 98.5429 75.1803C97.9893 75.4096 97.396 75.5276 96.7969 75.5276H105.922C107.132 75.5276 108.292 75.0469 109.148 74.1913C110.004 73.3356 110.484 72.1751 110.484 70.9651V57.2776C110.484 56.0675 110.004 54.907 109.148 54.0514C108.292 53.1958 107.132 52.7151 105.922 52.7151Z" fill="#F7B546"/>
<path d="M67.1406 75.5276H101.359V125.715C101.359 126.925 100.879 128.086 100.023 128.941C99.1674 129.797 98.0069 130.278 96.7969 130.278H28.3594C27.1493 130.278 25.9888 129.797 25.1332 128.941C24.2776 128.086 23.7969 126.925 23.7969 125.715V75.5276H58.0156" fill="#FFCC5C"/>
<path d="M92.2344 75.5276H23.7969V84.6526H73.9844C78.8246 84.6526 83.4665 86.5753 86.8891 89.9979C90.3116 93.4204 92.2344 98.0624 92.2344 102.903V130.278H96.7969C98.0069 130.278 99.1674 129.797 100.023 128.941C100.879 128.086 101.359 126.925 101.359 125.715V75.5276H92.2344Z" fill="#F7B546"/>
<path d="M51.1719 29.9026C49.674 29.9026 48.1908 30.1976 46.8069 30.7708C45.423 31.3441 44.1656 32.1842 43.1064 33.2434C42.0473 34.3026 41.2071 35.56 40.6339 36.9439C40.0607 38.3277 39.7656 39.8109 39.7656 41.3088C39.7656 42.8067 40.0607 44.29 40.6339 45.6738C41.2071 47.0577 42.0473 48.3151 43.1064 49.3743C44.1656 50.4334 45.423 51.2736 46.8069 51.8468C48.1908 52.4201 49.674 52.7151 51.1719 52.7151H62.5781V41.3088C62.5781 38.2837 61.3764 35.3825 59.2373 33.2434C57.0982 31.1043 54.197 29.9026 51.1719 29.9026ZM58.0156 48.1526H51.1719C49.8183 48.1526 48.4951 47.7512 47.3697 46.9992C46.2442 46.2472 45.3671 45.1784 44.8491 43.9278C44.3311 42.6773 44.1956 41.3012 44.4596 39.9737C44.7237 38.6461 45.3755 37.4267 46.3326 36.4696C47.2897 35.5125 48.5092 34.8607 49.8367 34.5966C51.1643 34.3325 52.5403 34.468 53.7909 34.986C55.0414 35.504 56.1102 36.3812 56.8622 37.5067C57.6142 38.6321 58.0156 39.9553 58.0156 41.3088V48.1526ZM73.9844 29.9026C70.9592 29.9026 68.058 31.1043 65.9189 33.2434C63.7799 35.3825 62.5781 38.2837 62.5781 41.3088V52.7151H73.9844C75.4823 52.7151 76.9655 52.4201 78.3494 51.8468C79.7332 51.2736 80.9906 50.4334 82.0498 49.3743C83.109 48.3151 83.9492 47.0577 84.5224 45.6738C85.0956 44.29 85.3906 42.8067 85.3906 41.3088C85.3906 39.8109 85.0956 38.3277 84.5224 36.9439C83.9492 35.56 83.109 34.3026 82.0498 33.2434C80.9906 32.1842 79.7332 31.3441 78.3494 30.7708C76.9655 30.1976 75.4823 29.9026 73.9844 29.9026ZM73.9844 48.1526H67.1406V41.3088C67.1406 39.9553 67.542 38.6321 68.294 37.5067C69.046 36.3812 70.1149 35.504 71.3654 34.986C72.6159 34.468 73.992 34.3325 75.3195 34.5966C76.6471 34.8607 77.8665 35.5125 78.8236 36.4696C79.7808 37.4267 80.4326 38.6461 80.6966 39.9737C80.9607 41.3012 80.8252 42.6773 80.3072 43.9278C79.7892 45.1784 78.912 46.2472 77.7866 46.9992C76.6611 47.7512 75.3379 48.1526 73.9844 48.1526Z" fill="#F04C4D"/>
<path d="M73.9844 48.1526H76.2656C78.0807 48.1526 79.8214 47.4316 81.1049 46.1481C82.3883 44.8646 83.1094 43.1239 83.1094 41.3088C83.1094 39.4938 82.3883 37.753 81.1049 36.4696C79.8214 35.1861 78.0807 34.4651 76.2656 34.4651C75.8732 34.4651 75.4991 34.5153 75.125 34.5791C76.8255 34.8523 78.3601 35.7579 79.4213 37.1144C80.4825 38.471 80.9921 40.1784 80.8478 41.8947C80.7036 43.611 79.9163 45.2094 78.6436 46.3699C77.3708 47.5303 75.7067 48.1671 73.9844 48.1526ZM51.1719 34.4651H48.8906C47.0755 34.4651 45.3348 35.1861 44.0514 36.4696C42.7679 37.753 42.0469 39.4938 42.0469 41.3088C42.0469 43.1239 42.7679 44.8646 44.0514 46.1481C45.3348 47.4316 47.0755 48.1526 48.8906 48.1526C49.283 48.1526 49.6571 48.1024 50.0312 48.0385C48.3307 47.7654 46.7961 46.8598 45.7349 45.5032C44.6737 44.1467 44.1642 42.4393 44.3084 40.723C44.4526 39.0067 45.24 37.4082 46.5127 36.2478C47.7854 35.0874 49.4496 34.4506 51.1719 34.4651Z" fill="#E13340"/>
<path d="M58.0156 52.7151H67.1406V130.278H58.0156V52.7151Z" fill="#F04C4D"/>
<path d="M96.3406 24.8838L103.641 23.0588L96.3406 21.2338L94.5156 13.9338L92.6906 21.2338L85.3906 23.0588L92.6906 24.8838L94.5156 32.1838L96.3406 24.8838ZM104.553 37.6588L108.203 36.7463L104.553 35.8338L103.641 32.1838L102.728 35.8338L99.0781 36.7463L102.728 37.6588L103.641 41.3088L104.553 37.6588ZM109.116 19.4088L112.766 18.4963L109.116 17.5838L108.203 13.9338L107.291 17.5838L103.641 18.4963L107.291 19.4088L108.203 23.0588L109.116 19.4088Z" fill="#FFCC5C"/>
</svg>
