<svg width="55" height="55" viewBox="0 0 55 55" fill="none" xmlns="http://www.w3.org/2000/svg">
<path d="M27.5 53.2812C41.7386 53.2812 53.2812 41.7386 53.2812 27.5C53.2812 13.2614 41.7386 1.71875 27.5 1.71875C13.2614 1.71875 1.71875 13.2614 1.71875 27.5C1.71875 41.7386 13.2614 53.2812 27.5 53.2812Z" fill="#4F008C"/>
<path d="M27.5 48.9844C39.3655 48.9844 48.9844 39.3655 48.9844 27.5C48.9844 15.6345 39.3655 6.01562 27.5 6.01562C15.6345 6.01562 6.01562 15.6345 6.01562 27.5C6.01562 39.3655 15.6345 48.9844 27.5 48.9844Z" fill="#420374"/>
<path d="M36.0938 47.2656H18.9062V39.5312C18.9062 39.0586 19.293 38.6719 19.7656 38.6719H35.2344C35.707 38.6719 36.0938 39.0586 36.0938 39.5312V47.2656Z" fill="#00C48C"/>
<path d="M37.3828 48.5547H17.6172L18.0469 47.2656H36.9531L37.3828 48.5547Z" fill="#00A58C"/>
<path d="M30.9375 45.5469H24.0625C23.1172 45.5469 22.3438 44.7734 22.3438 43.8281V42.5391C22.3438 41.5938 23.1172 40.8203 24.0625 40.8203H30.9375C31.8828 40.8203 32.6562 41.5938 32.6562 42.5391V43.8281C32.6562 44.7734 31.8828 45.5469 30.9375 45.5469Z" fill="white"/>
<path d="M29.7773 29.4336H25.2656V36.5234H29.7773V29.4336Z" fill="#F9A74E"/>
<path opacity="0.2" d="M29.7344 29.4336H28.4453V36.5234H29.7344V29.4336Z" fill="#382673"/>
<path d="M31.3672 36.0938H23.6328C22.2148 36.0938 21.0547 37.2539 21.0547 38.6719H33.9453C33.9453 37.2539 32.7852 36.0938 31.3672 36.0938Z" fill="#FFDE39"/>
<path d="M31.3672 36.0938H29.2188C30.6367 36.0938 31.7969 37.2539 31.7969 38.6719H33.9453C33.9453 37.2539 32.7852 36.0938 31.3672 36.0938Z" fill="#FEC632"/>
<path d="M29.6914 33.0859H25.3086C24.1484 33.0859 23.2031 32.1406 23.2031 30.9805V30.5078H31.7969V30.9805C31.7969 32.1406 30.8516 33.0859 29.6914 33.0859Z" fill="#FFDE39"/>
<path d="M30.0781 30.5078V30.9805C30.0781 32.1406 29.5625 33.0859 28.4023 33.0859H29.6914C30.8516 33.0859 31.7969 32.1406 31.7969 30.9805V30.5078H30.0781Z" fill="#FEC632"/>
<path d="M34.8047 38.6719H20.1953C20.1953 38.1992 20.582 37.8125 21.0547 37.8125H33.9453C34.418 37.8125 34.8047 38.1992 34.8047 38.6719Z" fill="#F9A74E"/>
<path opacity="0.2" d="M33.9453 37.8125H31.7969C32.2695 37.8125 32.6562 38.1992 32.6562 38.6719H34.8047C34.8047 38.1992 34.418 37.8125 33.9453 37.8125Z" fill="#382673"/>
<path d="M32.6562 29.6484H22.3438V30.9375C22.3438 31.4102 22.7305 31.7969 23.2031 31.7969H31.7969C32.2695 31.7969 32.6562 31.4102 32.6562 30.9375V29.6484Z" fill="#F9A74E"/>
<path d="M32.6562 29.6484H22.3438V30.9375C22.3438 31.4102 22.7305 31.7969 23.2031 31.7969H31.7969C32.2695 31.7969 32.6562 31.4102 32.6562 30.9375V29.6484Z" fill="#F9A74E"/>
<path opacity="0.2" d="M30.5078 29.6484L29.6484 30.9375C30.0781 30.9375 30.1211 31.7969 29.6484 31.7969H31.7969C32.2695 31.7969 32.6562 31.4102 32.6562 30.9375V29.6484H30.5078Z" fill="#382673"/>
<path d="M33.5156 15.8984H41.6797V16.3281C41.6797 20.8398 38.0273 24.4922 33.5156 24.4922" stroke="#F9A74E" stroke-width="4" stroke-miterlimit="10" stroke-linecap="round" stroke-linejoin="round"/>
<path d="M21.4844 15.8984H13.3203V16.3281C13.3203 20.8398 16.9727 24.4922 21.4844 24.4922" stroke="#FEC632" stroke-width="4" stroke-miterlimit="10" stroke-linecap="round" stroke-linejoin="round"/>
<path d="M31.1523 30.9375H23.8477C21.0977 30.9375 18.9062 28.7461 18.9062 25.9961V12.4609H36.0938V25.9961C36.0938 28.7461 33.9023 30.9375 31.1523 30.9375Z" fill="#FFDE39"/>
<path opacity="0.3" d="M21.4844 13.75C21.4844 13.75 21.4844 21.0547 21.4844 22.3438" stroke="white" stroke-width="2" stroke-miterlimit="10" stroke-linecap="round" stroke-linejoin="round"/>
<path d="M33.9453 12.4609V25.9961C33.9453 28.7461 31.7539 30.9375 29.0039 30.9375H31.1523C33.9023 30.9375 36.0938 28.7461 36.0938 25.9961V12.4609H33.9453Z" fill="#FEC632"/>
<path d="M37.3828 12.4609H17.6172L18.9062 13.75H36.0938L37.3828 12.4609Z" fill="#F9A74E"/>
<path opacity="0.2" d="M34.8047 12.4609L33.9453 13.75H36.0938L37.3828 12.4609H34.8047Z" fill="#382673"/>
<path d="M37.8125 10.7422H17.1875C16.7148 10.7422 16.3281 11.1289 16.3281 11.6016C16.3281 12.0742 16.7148 12.4609 17.1875 12.4609H37.8125C38.2852 12.4609 38.6719 12.0742 38.6719 11.6016C38.6719 11.1289 38.2852 10.7422 37.8125 10.7422Z" fill="#FFDE39"/>
<path d="M37.8125 10.7422H35.2344C35.707 10.7422 36.0938 11.1289 36.0938 11.6016C36.0938 12.0742 35.707 12.4609 35.2344 12.4609H37.8125C38.2852 12.4609 38.6719 12.0742 38.6719 11.6016C38.6719 11.1289 38.2852 10.7422 37.8125 10.7422Z" fill="#FEC632"/>
<path opacity="0.3" d="M21.4844 24.2344V25.2227" stroke="white" stroke-width="2" stroke-miterlimit="10" stroke-linecap="round" stroke-linejoin="round"/>
<path d="M21.0117 9.19531L21.2695 8.55078C21.3555 8.37891 21.6133 8.37891 21.6563 8.55078L21.9141 9.19531C22.1289 9.71094 22.5156 10.0977 23.0312 10.3125L23.6758 10.5703C23.8477 10.6563 23.8477 10.9141 23.6758 10.957L23.0312 11.2148C22.5156 11.4297 22.1289 11.8164 21.9141 12.332L21.6563 12.9766C21.5703 13.1484 21.3125 13.1484 21.2695 12.9766L21.0117 12.332C20.7969 11.8164 20.4102 11.4297 19.8945 11.2148L19.25 10.957C19.0781 10.8711 19.0781 10.6133 19.25 10.5703L19.8945 10.3125C20.4102 10.0977 20.8398 9.66797 21.0117 9.19531Z" fill="white"/>
<path d="M27.4993 23.418L29.3469 24.4062C29.6047 24.5352 29.9485 24.3203 29.9055 24.0195L29.5188 21.9141L31.0227 20.4531C31.2375 20.2383 31.1086 19.8516 30.8079 19.8086L28.7454 19.5078L27.8 17.6172C27.6711 17.3594 27.2844 17.3594 27.1555 17.6172L26.2102 19.5078L24.1477 19.8086C23.8469 19.8516 23.718 20.2383 23.9329 20.4531L25.4368 21.9141L25.093 23.9766C25.05 24.2773 25.3508 24.4922 25.6516 24.3633L27.4993 23.418Z" fill="#FEC632"/>
</svg>
