<svg width="10" height="10" viewBox="0 0 10 10" fill="none" xmlns="http://www.w3.org/2000/svg">
<path d="M9.65 4.04C9.5095 3.87132 9.3337 3.73554 9.13499 3.64223C8.93629 3.54893 8.71952 3.50037 8.5 3.5H6.22L6.5 2.785C6.61647 2.47194 6.65525 2.1353 6.61303 1.80396C6.57081 1.47262 6.44884 1.15646 6.25759 0.882614C6.06634 0.608765 5.81151 0.385398 5.51497 0.231671C5.21843 0.0779443 4.88902 -0.0015526 4.555 -5.92563e-07C4.45882 0.000200088 4.36474 0.028137 4.28403 0.0804608C4.20333 0.132785 4.13943 0.207274 4.1 0.294999L2.675 3.5H1.5C1.10218 3.5 0.720644 3.65803 0.43934 3.93934C0.158035 4.22064 0 4.60217 0 5V8.5C0 8.89782 0.158035 9.27936 0.43934 9.56066C0.720644 9.84196 1.10218 10 1.5 10H7.865C8.2159 9.99988 8.55566 9.87674 8.82516 9.65201C9.09466 9.42728 9.27684 9.11517 9.34 8.77L9.975 5.27C10.0143 5.05369 10.0055 4.83139 9.94936 4.61884C9.8932 4.40628 9.791 4.20868 9.65 4.04ZM2.5 9H1.5C1.36739 9 1.24021 8.94732 1.14645 8.85355C1.05268 8.75978 1 8.63261 1 8.5V5C1 4.86739 1.05268 4.74021 1.14645 4.64645C1.24021 4.55268 1.36739 4.5 1.5 4.5H2.5V9ZM9 5.09L8.365 8.59C8.3437 8.70648 8.28176 8.81162 8.19019 8.8867C8.09863 8.96178 7.98339 9.00193 7.865 9H3.5V4.105L4.86 1.045C4.99999 1.08581 5.13 1.1552 5.24183 1.24879C5.35365 1.34238 5.44486 1.45813 5.5097 1.58875C5.57453 1.71936 5.61159 1.86199 5.61853 2.00765C5.62546 2.1533 5.60213 2.29882 5.55 2.435L5.285 3.15C5.22853 3.30113 5.20947 3.46367 5.22944 3.62376C5.2494 3.78386 5.30781 3.93674 5.39967 4.06937C5.49152 4.202 5.61411 4.31043 5.75695 4.38542C5.8998 4.46041 6.05867 4.49972 6.22 4.5H8.5C8.57345 4.49988 8.64603 4.51595 8.71258 4.54706C8.77912 4.57817 8.83799 4.62356 8.885 4.68C8.93317 4.73566 8.96845 4.80127 8.98833 4.87215C9.00821 4.94302 9.01219 5.01741 9 5.09Z" fill="white"/>
</svg>
