<svg width="16" height="14" viewBox="0 0 16 14" fill="none" xmlns="http://www.w3.org/2000/svg">
<path d="M15.2803 6.46975L9.28025 0.469747C9.17537 0.364857 9.04175 0.293423 8.89627 0.264478C8.7508 0.235534 8.60001 0.25038 8.46297 0.307138C8.32593 0.363896 8.2088 0.460017 8.12639 0.583345C8.04398 0.706674 8 0.85167 8 0.999997V3.65869C5.95122 3.84832 4.04694 4.79565 2.6598 6.31527C1.27265 7.8349 0.502481 9.81746 0.5 11.875V13C0.499988 13.1558 0.54847 13.3076 0.638714 13.4346C0.728959 13.5615 0.856489 13.6573 1.0036 13.7084C1.15071 13.7596 1.31011 13.7637 1.45965 13.7202C1.6092 13.6766 1.74148 13.5876 1.83814 13.4655C2.57287 12.5917 3.47437 11.873 4.48997 11.3516C5.50558 10.8302 6.61492 10.5163 7.75318 10.4285C7.79053 10.4237 7.88427 10.4164 8 10.4091V13C8 13.1483 8.04398 13.2933 8.12639 13.4166C8.2088 13.54 8.32593 13.6361 8.46297 13.6929C8.60001 13.7496 8.7508 13.7645 8.89627 13.7355C9.04175 13.7066 9.17537 13.6351 9.28025 13.5302L15.2803 7.53025C15.3499 7.46062 15.4052 7.37796 15.4429 7.28698C15.4806 7.196 15.5 7.09848 15.5 7C15.5 6.90151 15.4806 6.804 15.4429 6.71301C15.4052 6.62203 15.3499 6.53937 15.2803 6.46975ZM9.5 11.1895V9.625C9.50003 9.5265 9.48064 9.42896 9.44296 9.33795C9.40528 9.24695 9.35004 9.16426 9.28039 9.09461C9.21074 9.02496 9.12805 8.96972 9.03704 8.93203C8.94604 8.89435 8.8485 8.87497 8.75 8.875C8.55884 8.875 7.77808 8.91199 7.57886 8.93875C5.5573 9.12494 3.63302 9.89296 2.03882 11.1499C2.21967 9.49564 3.00438 7.96623 4.2427 6.85455C5.48101 5.74286 7.08589 5.12704 8.75 5.125C8.8485 5.12502 8.94604 5.10564 9.03704 5.06796C9.12805 5.03028 9.21074 4.97503 9.28039 4.90538C9.35004 4.83573 9.40528 4.75305 9.44296 4.66204C9.48064 4.57103 9.50003 4.4735 9.5 4.375V2.81054L13.6895 7L9.5 11.1895Z" fill="white"/>
</svg>
