<svg width="10" height="10" viewBox="0 0 10 10" fill="none" xmlns="http://www.w3.org/2000/svg">
<path d="M6.18 6.115C5.84576 6.38448 5.42935 6.53144 5 6.53144C4.57066 6.53144 4.15424 6.38448 3.82 6.115C3.71789 6.03013 3.58625 5.9893 3.45404 6.00149C3.32183 6.01368 3.19987 6.07789 3.115 6.18C3.03013 6.28211 2.9893 6.41375 3.00149 6.54596C3.01368 6.67817 3.07789 6.80013 3.18 6.885C3.69067 7.3113 4.33478 7.54482 5 7.54482C5.66522 7.54482 6.30933 7.3113 6.82 6.885C6.92211 6.80013 6.98632 6.67817 6.99851 6.54596C7.0107 6.41375 6.96987 6.28211 6.885 6.18C6.84298 6.12944 6.79141 6.08765 6.73324 6.05703C6.67506 6.0264 6.61143 6.00753 6.54596 6.00149C6.41375 5.9893 6.28211 6.03013 6.18 6.115ZM3.5 4.855L3.645 4.705L3.79 4.855C3.83648 4.90186 3.89178 4.93906 3.95271 4.96445C4.01364 4.98983 4.079 5.0029 4.145 5.0029C4.21101 5.0029 4.27636 4.98983 4.33729 4.96445C4.39822 4.93906 4.45352 4.90186 4.5 4.855C4.54687 4.80852 4.58406 4.75322 4.60945 4.69229C4.63483 4.63136 4.6479 4.56601 4.6479 4.5C4.6479 4.43399 4.63483 4.36864 4.60945 4.30771C4.58406 4.24678 4.54687 4.19148 4.5 4.145L4.35 4L4.5 3.855C4.59415 3.7582 4.64599 3.62796 4.64412 3.49293C4.64224 3.3579 4.58681 3.22915 4.49 3.135C4.3932 3.04085 4.26296 2.98901 4.12793 2.99088C3.9929 2.99276 3.86415 3.0482 3.77 3.145L3.625 3.295L3.5 3.145C3.40585 3.0482 3.2771 2.99276 3.14207 2.99088C3.00705 2.98901 2.87681 3.04085 2.78 3.135C2.6832 3.22915 2.62776 3.3579 2.62589 3.49293C2.62401 3.62796 2.67585 3.7582 2.77 3.855L2.92 4L2.77 4.145C2.72314 4.19148 2.68594 4.24678 2.66056 4.30771C2.63517 4.36864 2.6221 4.43399 2.6221 4.5C2.6221 4.56601 2.63517 4.63136 2.66056 4.69229C2.68594 4.75322 2.72314 4.80852 2.77 4.855C2.81648 4.90186 2.87178 4.93906 2.93271 4.96445C2.99364 4.98983 3.059 5.0029 3.125 5.0029C3.19101 5.0029 3.25636 4.98983 3.31729 4.96445C3.37822 4.93906 3.43352 4.90186 3.48 4.855H3.5ZM5 0C4.0111 0 3.0444 0.293245 2.22215 0.842652C1.39991 1.39206 0.759043 2.17295 0.380605 3.08658C0.00216642 4.00021 -0.0968502 5.00555 0.0960758 5.97545C0.289002 6.94536 0.765206 7.83627 1.46447 8.53553C2.16373 9.2348 3.05465 9.711 4.02455 9.90393C4.99446 10.0969 5.99979 9.99784 6.91342 9.6194C7.82705 9.24096 8.60794 8.6001 9.15735 7.77785C9.70676 6.95561 10 5.98891 10 5C10 4.34339 9.87067 3.69321 9.6194 3.08658C9.36812 2.47995 8.99983 1.92876 8.53553 1.46447C8.07124 1.00017 7.52005 0.631876 6.91342 0.380602C6.30679 0.129329 5.65661 0 5 0ZM5 9C4.20888 9 3.43552 8.7654 2.77772 8.32588C2.11992 7.88635 1.60723 7.26164 1.30448 6.53073C1.00173 5.79983 0.92252 4.99556 1.07686 4.21964C1.2312 3.44371 1.61216 2.73098 2.17157 2.17157C2.73098 1.61216 3.44372 1.2312 4.21964 1.07686C4.99556 0.922518 5.79983 1.00173 6.53074 1.30448C7.26164 1.60723 7.88635 2.11992 8.32588 2.77772C8.7654 3.43552 9 4.20887 9 5C9 6.06087 8.57857 7.07828 7.82843 7.82843C7.07828 8.57857 6.06087 9 5 9ZM7.5 3.145C7.45352 3.09814 7.39822 3.06094 7.33729 3.03555C7.27636 3.01017 7.21101 2.9971 7.145 2.9971C7.079 2.9971 7.01364 3.01017 6.95271 3.03555C6.89178 3.06094 6.83648 3.09814 6.79 3.145L6.645 3.295L6.5 3.145C6.40585 3.05085 6.27815 2.99795 6.145 2.99795C6.01185 2.99795 5.88415 3.05085 5.79 3.145C5.69585 3.23915 5.64296 3.36685 5.64296 3.5C5.64296 3.63315 5.69585 3.76085 5.79 3.855L5.94 4L5.79 4.145C5.74314 4.19148 5.70594 4.24678 5.68056 4.30771C5.65517 4.36864 5.6421 4.43399 5.6421 4.5C5.6421 4.56601 5.65517 4.63136 5.68056 4.69229C5.70594 4.75322 5.74314 4.80852 5.79 4.855C5.83648 4.90186 5.89178 4.93906 5.95271 4.96445C6.01364 4.98983 6.079 5.0029 6.145 5.0029C6.21101 5.0029 6.27636 4.98983 6.33729 4.96445C6.39822 4.93906 6.45352 4.90186 6.5 4.855L6.645 4.705L6.79 4.855C6.83648 4.90186 6.89178 4.93906 6.95271 4.96445C7.01364 4.98983 7.079 5.0029 7.145 5.0029C7.21101 5.0029 7.27636 4.98983 7.33729 4.96445C7.39822 4.93906 7.45352 4.90186 7.5 4.855C7.54687 4.80852 7.58406 4.75322 7.60945 4.69229C7.63483 4.63136 7.6479 4.56601 7.6479 4.5C7.6479 4.43399 7.63483 4.36864 7.60945 4.30771C7.58406 4.24678 7.54687 4.19148 7.5 4.145L7.35 4L7.5 3.855C7.54687 3.80852 7.58406 3.75322 7.60945 3.69229C7.63483 3.63136 7.6479 3.56601 7.6479 3.5C7.6479 3.43399 7.63483 3.36864 7.60945 3.30771C7.58406 3.24678 7.54687 3.19148 7.5 3.145Z" fill="white"/>
</svg>
