<svg width="55" height="55" viewBox="0 0 55 55" fill="none" xmlns="http://www.w3.org/2000/svg">
<path d="M27.5 53.2812C41.7386 53.2812 53.2812 41.7386 53.2812 27.5C53.2812 13.2614 41.7386 1.71875 27.5 1.71875C13.2614 1.71875 1.71875 13.2614 1.71875 27.5C1.71875 41.7386 13.2614 53.2812 27.5 53.2812Z" fill="#4F008C"/>
<path d="M27.5 48.9844C39.3655 48.9844 48.9844 39.3655 48.9844 27.5C48.9844 15.6345 39.3655 6.01562 27.5 6.01562C15.6345 6.01562 6.01562 15.6345 6.01562 27.5C6.01562 39.3655 15.6345 48.9844 27.5 48.9844Z" fill="#420374"/>
<path d="M39.1016 23.6758C32.6562 21.3125 26.2969 18.5625 20.0664 15.3828C16.3281 25.2656 14.2656 35.9648 14.1797 47.0508C17.6602 45.375 21.1836 43.8281 24.75 42.4531C28.0586 44.8164 31.4961 46.9219 34.9336 48.6836C34.8477 39.875 36.3086 31.4102 39.1016 23.6758Z" fill="#FF375E"/>
<path d="M16.1562 28.832C16.457 29.0898 16.8008 29.3047 17.1875 29.3906C18.5625 29.7344 19.5508 31.2383 19.5938 33.043C19.7227 35.793 22.0859 37.3398 23.9336 36.0508C25.1797 35.2344 26.6836 35.6211 27.6289 36.8242C29.0898 38.7148 31.668 38.1562 32.5273 36.0508C33.1289 34.6758 34.5469 33.9883 35.8789 34.332C35.9648 34.375 36.0508 34.375 36.1367 34.375C36.8242 30.6797 37.8125 27.0703 39.0586 23.6328C32.6133 21.2695 26.2539 18.5195 20.0234 15.3398C18.4336 19.7227 17.1016 24.1914 16.1562 28.832Z" fill="#FF375E"/>
<path d="M37.5117 23.0742C32.1406 21.0547 26.8555 18.7344 21.6563 16.1562C18.1328 25.5234 16.1133 35.707 15.9414 46.2344C18.8633 44.9023 21.7852 43.6133 24.75 42.4531C27.5 44.4297 30.3359 46.1914 33.2148 47.7812C33.2148 39.0586 34.7188 30.7227 37.5117 23.0742Z" fill="#FF375E"/>
<path d="M19.5937 33.043C19.7227 35.793 22.043 36.8242 23.9336 35.5352C25.1797 34.7188 26.6836 35.1055 27.6289 36.3516C29.0469 38.2422 31.7109 38.1992 32.5703 36.0508C32.957 35.1914 33.6445 34.5898 34.4609 34.332C35.1914 30.4219 36.2227 26.6406 37.5117 23.0312C32.1406 21.0547 26.8555 18.7344 21.6563 16.1562C20.0234 20.4961 18.7344 24.9648 17.7461 29.6055C18.8203 30.207 19.5508 31.4961 19.5937 33.043Z" fill="#FF375E"/>
<path d="M33.687 7.64855C35.5777 6.66027 37.898 7.99231 37.9839 10.1407C38.0698 11.5587 39.1011 12.6759 40.4761 12.8907C42.5816 13.2345 43.6558 15.6407 42.4956 17.4454C41.7222 18.6056 41.8941 20.1525 42.8823 21.1407C44.3862 22.6446 43.8706 25.2228 41.8511 25.9962C40.562 26.5118 39.7886 27.8439 40.0034 29.2189C40.3472 31.3243 38.3706 33.0861 36.3081 32.5704C34.9331 32.2267 33.5151 32.8282 32.9136 34.1173C31.9253 36.0509 29.3042 36.3087 27.9722 34.6329C27.0698 33.5587 25.5659 33.215 24.3198 33.8595C22.4292 34.8478 20.1089 33.5157 20.023 31.3673C19.937 29.9493 18.9058 28.8321 17.5308 28.6173C15.4253 28.2736 14.3511 25.8673 15.5112 24.0626C16.2847 22.9025 16.1128 21.3556 15.1245 20.3673C13.6206 18.8634 14.1362 16.2853 16.1558 15.5118C17.4448 14.9962 18.2183 13.6642 18.0034 12.2892C17.6597 10.1837 19.6362 8.42199 21.6987 8.93762C23.0737 9.28137 24.4917 8.67981 25.0933 7.39074C26.0816 5.45715 28.7027 5.19934 30.0347 6.87512C30.8941 7.94934 32.4409 8.25012 33.687 7.64855Z" fill="#00C48C"/>
<path d="M39.1135 22.8646C40.2851 17.2911 36.7165 11.8231 31.143 10.6515C25.5694 9.47997 20.1014 13.0485 18.9299 18.6221C17.7583 24.1956 21.3269 29.6636 26.9004 30.8351C32.474 32.0067 37.942 28.4382 39.1135 22.8646Z" fill="#00C48C"/>
<path d="M19.1643 19.5508C20.3245 13.9649 25.7815 10.3984 31.3674 11.5586C35.1487 12.375 38.0276 15.125 39.1018 18.5625C38.2854 14.6953 35.2346 11.4727 31.1526 10.6133C25.5667 9.45313 20.0667 13.0625 18.9065 18.6055C18.5198 20.4102 18.6487 22.1719 19.1643 23.8047C18.8635 22.4297 18.8635 21.0117 19.1643 19.5508Z" fill="#037C68"/>
<path d="M28.1018 21.0547L25.9963 17.7891C25.8674 17.5742 25.6096 17.5312 25.3948 17.6602L23.4612 18.9063C23.2463 19.0352 23.2034 19.293 23.3323 19.5078L27.1995 25.3945C27.3284 25.6094 27.5862 25.6523 27.801 25.5234L35.4495 20.5391C35.6643 20.4102 35.7073 20.1523 35.5784 19.9375L34.3323 18.0039C34.2034 17.7891 33.9456 17.7461 33.7307 17.875L28.7034 21.1406C28.4885 21.3125 28.2307 21.2266 28.1018 21.0547Z" fill="white"/>
<path d="M9.625 21.2695L9.88281 20.625C9.96875 20.4531 10.2266 20.4531 10.2695 20.625L10.5273 21.2695C10.7422 21.7852 11.1289 22.1719 11.6445 22.3867L12.2891 22.6445C12.4609 22.7305 12.4609 22.9883 12.2891 23.0312L11.6016 23.2461C11.0859 23.4609 10.6992 23.8477 10.4844 24.3633L10.2266 25.0078C10.1406 25.1797 9.88281 25.1797 9.83984 25.0078L9.58203 24.3633C9.36719 23.8477 8.98047 23.4609 8.46484 23.2461L7.82031 22.9883C7.64844 22.9023 7.64844 22.6445 7.82031 22.6016L8.46484 22.3438C9.02344 22.1719 9.41016 21.7422 9.625 21.2695Z" fill="#FFDD40"/>
<path d="M40.1328 38.457L40.3906 37.8125C40.4766 37.6406 40.7344 37.6406 40.7773 37.8125L41.0352 38.457C41.25 38.9727 41.6367 39.3594 42.1523 39.5742L42.7969 39.832C42.9688 39.918 42.9688 40.1758 42.7969 40.2187L42.1094 40.4336C41.5938 40.6484 41.207 41.0352 40.9922 41.5508L40.7344 42.1953C40.6484 42.3672 40.3906 42.3672 40.3477 42.1953L40.0898 41.5508C39.875 41.0352 39.4883 40.6484 38.9727 40.4336L38.3281 40.1758C38.1563 40.0898 38.1563 39.832 38.3281 39.7891L38.9727 39.5313C39.5312 39.3594 39.918 38.9297 40.1328 38.457Z" fill="#FFDD40"/>
<path d="M9.88281 33.9453C10.3574 33.9453 10.7422 33.5606 10.7422 33.0859C10.7422 32.6113 10.3574 32.2266 9.88281 32.2266C9.40819 32.2266 9.02344 32.6113 9.02344 33.0859C9.02344 33.5606 9.40819 33.9453 9.88281 33.9453Z" fill="white"/>
<path d="M45.5469 30.9375C46.0215 30.9375 46.4062 30.5527 46.4062 30.0781C46.4062 29.6035 46.0215 29.2188 45.5469 29.2188C45.0723 29.2188 44.6875 29.6035 44.6875 30.0781C44.6875 30.5527 45.0723 30.9375 45.5469 30.9375Z" fill="white"/>
</svg>
